<?xml version="1.0" encoding="iso-8859-1"?>
<svg xmlns="http://www.w3.org/2000/svg" xmlns:xlink="http://www.w3.org/1999/xlink" version="1.1" viewBox="0 0 480 480" enable-background="new 0 0 480 480" width="512px" height="512px">
  <g>
    <g>
      <path d="m270,79.55c0-16.542-13.458-30-30-30s-30,13.458-30,30 13.458,30 30,30 30-13.458 30-30zm-45,0c0-8.271 6.729-15 15-15s15,6.729 15,15-6.729,15-15,15-15-6.729-15-15z" fill="#FFFFFF"/>
      <path d="m393.433,119.791c-4.007-1.868-8.267-2.814-12.661-2.814-11.616,0-22.292,6.8-27.2,17.324-3.386,7.261-3.741,15.406-1.001,22.935s8.249,13.54 15.51,16.926c4.006,1.868 8.266,2.814 12.661,2.814 11.615,0 22.292-6.8 27.199-17.323 6.99-14.989 0.482-32.871-14.508-39.862zm.914,33.522c-2.454,5.263-7.794,8.663-13.604,8.663-2.188,0-4.315-0.474-6.322-1.41-3.63-1.692-6.383-4.697-7.753-8.461-1.37-3.763-1.192-7.835 0.5-11.465 2.454-5.263 7.794-8.663 13.605-8.663 2.188,0 4.315,0.474 6.322,1.409 7.493,3.495 10.746,12.433 7.252,19.927z" fill="#FFFFFF"/>
      <path d="m435.521,116.62c3.317-16.718-5.055-34.237-21.145-41.74-5.062-2.36-10.442-3.558-15.991-3.558-11.586,0-22.457,5.374-29.562,14.19-5.614-3.153-11.973-4.837-18.531-4.837-10.473,0-20.574,4.391-27.714,12.047-12.108,12.985-13.308,32.364-3.969,46.623-12.511,11.575-16.035,30.67-7.428,46.197 6.675,12.043 19.383,19.523 33.164,19.523 0.356,0 0.71-0.026 1.065-0.036l-10.402,22.308h-87.509v-80.247c5.222,2.621 11.043,4.055 17.016,4.055 8.034,0 15.726-2.502 22.243-7.237 14.363-10.435 19.239-29.229 12.792-45.008 14.489-8.977 21.592-27.047 16.105-43.932-5.089-15.663-19.567-26.187-36.027-26.187-0.944,0-1.887,0.035-2.827,0.105-4.06-16.549-19.05-28.886-36.801-28.886s-32.741,12.337-36.802,28.887c-0.94-0.07-1.883-0.105-2.827-0.105-16.46,0-30.938,10.523-36.027,26.187-5.487,16.885 1.616,34.955 16.105,43.932-6.446,15.778-1.571,34.573 12.792,45.008 6.516,4.734 14.207,7.237 22.242,7.237 5.975,0 11.795-1.433 17.016-4.055v80.248h-87.508l-10.402-22.308c0.355,0.01 0.709,0.036 1.065,0.036 13.782,0 26.489-7.481 33.165-19.523 8.607-15.527 5.083-34.622-7.428-46.197 9.339-14.258 8.139-33.638-3.969-46.623-7.14-7.656-17.241-12.047-27.714-12.047-6.559,0-12.917,1.684-18.531,4.837-7.105-8.816-17.976-14.19-29.562-14.19-5.549,0-10.93,1.197-15.991,3.558-16.09,7.503-24.462,25.022-21.145,41.74-15.936,6.046-26.356,22.43-24.193,40.051 2.147,17.49 16.046,31.015 33.164,33.017 0.829,17.021 13.189,31.99 30.614,35.377 2.396,0.466 4.839,0.702 7.263,0.702 11.845,0 22.646-5.575 29.657-14.419l7.478,16.035c-2.285,0.219-4.363,1.466-5.61,3.425-1.377,2.161-1.555,4.876-0.472,7.199l110.822,237.661c1.232,2.642 3.883,4.33 6.797,4.33s5.565-1.688 6.797-4.33l110.824-237.661c1.083-2.323 0.905-5.038-0.472-7.199-1.248-1.959-3.326-3.206-5.612-3.425l7.478-16.037c7.012,8.843 17.813,14.419 29.657,14.419 2.424,0 4.867-0.236 7.263-0.702 17.425-3.387 29.786-18.355 30.615-35.377 17.118-2.002 31.016-15.526 33.164-33.017 2.165-17.621-8.256-34.005-24.192-40.051zm-220.034,19.525c-4.849,0-9.492-1.512-13.429-4.372-10.155-7.379-12.458-21.676-5.134-31.871 1.393-1.938 1.78-4.424 1.042-6.693-0.737-2.271-2.511-4.054-4.777-4.803-11.918-3.943-18.459-16.864-14.58-28.803 3.075-9.463 11.82-15.821 21.761-15.821 2.352,0 4.695,0.366 6.963,1.091 2.273,0.723 4.757,0.324 6.688-1.078s3.079-3.641 3.092-6.027c0.067-12.555 10.334-22.768 22.887-22.768s22.82,10.213 22.887,22.767c0.013,2.387 1.161,4.625 3.092,6.027 1.931,1.403 4.413,1.8 6.688,1.078 2.268-0.725 4.611-1.091 6.963-1.091 9.941,0 18.686,6.358 21.761,15.821 3.879,11.938-2.661,24.859-14.58,28.803-2.266,0.749-4.04,2.532-4.777,4.803-0.738,2.27-0.351,4.755 1.042,6.693 7.324,10.195 5.021,24.492-5.134,31.871-3.938,2.86-8.581,4.372-13.426,4.372-7.27,0-14.175-3.49-18.472-9.338-0.03-0.041-0.065-0.076-0.096-0.115-0.116-0.151-0.237-0.297-0.364-0.438-0.061-0.068-0.121-0.136-0.184-0.202-0.143-0.149-0.294-0.29-0.449-0.427-0.048-0.042-0.093-0.088-0.142-0.129-0.209-0.175-0.427-0.338-0.654-0.49-0.033-0.022-0.069-0.041-0.102-0.062-0.195-0.126-0.396-0.243-0.604-0.351-0.065-0.034-0.132-0.063-0.197-0.095-0.182-0.088-0.366-0.169-0.556-0.242-0.075-0.029-0.151-0.056-0.227-0.083-0.186-0.065-0.376-0.122-0.568-0.172-0.079-0.021-0.157-0.043-0.236-0.061-0.2-0.045-0.403-0.08-0.609-0.109-0.073-0.01-0.144-0.025-0.218-0.033-0.276-0.031-0.555-0.05-0.839-0.05s-0.563,0.019-0.839,0.05c-0.073,0.008-0.145,0.023-0.218,0.033-0.206,0.029-0.409,0.064-0.609,0.109-0.079,0.018-0.157,0.04-0.236,0.061-0.193,0.05-0.382,0.107-0.568,0.172-0.076,0.027-0.151,0.054-0.227,0.083-0.189,0.073-0.374,0.154-0.556,0.242-0.066,0.032-0.133,0.061-0.197,0.095-0.207,0.108-0.408,0.225-0.604,0.351-0.034,0.022-0.069,0.04-0.102,0.062-0.227,0.151-0.445,0.315-0.654,0.49-0.049,0.041-0.094,0.087-0.142,0.129-0.155,0.137-0.306,0.278-0.449,0.427-0.063,0.066-0.123,0.134-0.184,0.202-0.127,0.142-0.248,0.287-0.364,0.438-0.031,0.04-0.066,0.075-0.096,0.115-4.295,5.848-11.199,9.339-18.467,9.339zm-124.161,74.622c-1.465,0-2.946-0.144-4.401-0.427-12.322-2.395-20.452-14.379-18.122-26.715 0.443-2.345-0.257-4.762-1.885-6.507-1.427-1.53-3.417-2.385-5.484-2.385-0.291,0-0.583,0.017-0.875,0.051-0.898,0.105-1.808,0.159-2.705,0.159-11.523,0-21.274-8.642-22.681-20.101-1.53-12.459 7.356-23.894 19.807-25.49 2.368-0.304 4.449-1.716 5.606-3.804 1.157-2.087 1.251-4.601 0.254-6.77-5.244-11.405-0.255-25 11.122-30.306 3.062-1.428 6.309-2.151 9.651-2.151 8.816,0 16.946,5.147 20.712,13.112 1.02,2.157 3.006,3.701 5.349,4.156 2.343,0.457 4.763-0.231 6.517-1.85 4.24-3.911 9.75-6.065 15.515-6.065 6.421,0 12.368,2.584 16.744,7.277 8.562,9.181 8.094,23.655-1.041,32.265-1.737,1.637-2.591,4.003-2.3,6.372 0.291,2.369 1.692,4.458 3.773,5.626 10.947,6.145 14.902,20.076 8.816,31.056-4.033,7.275-11.712,11.795-20.042,11.795-3.81,0-7.601-0.974-10.966-2.815-0.044-0.024-0.09-0.041-0.135-0.064-0.171-0.089-0.345-0.171-0.521-0.246-0.08-0.034-0.16-0.07-0.241-0.101-0.202-0.078-0.408-0.146-0.616-0.206-0.052-0.015-0.102-0.034-0.154-0.048-0.268-0.072-0.539-0.129-0.814-0.171-0.022-0.003-0.044-0.004-0.067-0.007-0.249-0.036-0.499-0.058-0.751-0.068-0.061-0.003-0.122-0.001-0.183-0.002-0.215-0.004-0.429,0.001-0.645,0.017-0.07,0.005-0.14,0.011-0.211,0.018-0.207,0.02-0.413,0.05-0.619,0.089-0.072,0.013-0.144,0.025-0.215,0.04-0.207,0.045-0.413,0.101-0.619,0.164-0.065,0.02-0.131,0.036-0.195,0.057-0.258,0.087-0.513,0.186-0.765,0.303-0.289,0.136-0.526,0.266-0.755,0.405-0.067,0.041-0.13,0.087-0.195,0.13-0.17,0.111-0.335,0.225-0.493,0.347-0.067,0.052-0.131,0.107-0.196,0.161-0.151,0.125-0.296,0.254-0.435,0.389-0.06,0.058-0.119,0.117-0.176,0.177-0.138,0.144-0.269,0.293-0.394,0.446-0.049,0.059-0.098,0.117-0.145,0.177-0.139,0.181-0.267,0.367-0.389,0.558-0.025,0.039-0.052,0.075-0.076,0.114-0.141,0.231-0.268,0.47-0.382,0.714-0.03,0.064-0.054,0.13-0.082,0.195-0.08,0.183-0.154,0.368-0.219,0.557-0.031,0.09-0.057,0.182-0.085,0.273-0.053,0.176-0.1,0.354-0.14,0.534-0.012,0.052-0.03,0.101-0.04,0.153-2.133,10.67-11.558,18.412-22.411,18.412zm148.674,243.987l-21.156-45.37 32.878-70.508c1.75-3.754 0.126-8.217-3.628-9.967-3.754-1.751-8.216-0.127-9.967,3.627l-27.559,59.101-69.619-149.299h99.041c0.019,0 40.197,0 40.197,0l-29.382,63.008c-1.75,3.754-0.126,8.217 3.627,9.967 1.025,0.479 2.104,0.705 3.165,0.705 2.825,0 5.53-1.604 6.802-4.332l32.338-69.348h42.313l-99.05,212.416zm204.826-299.911c-1.407,11.459-11.158,20.101-22.681,20.101-0.896,0-1.807-0.054-2.705-0.159-2.372-0.275-4.731,0.589-6.359,2.334s-2.328,4.162-1.885,6.507c2.33,12.336-5.8,24.32-18.123,26.715-1.455,0.283-2.936,0.427-4.401,0.427-10.853,0-20.277-7.741-22.41-18.407-0.468-2.34-2.022-4.318-4.185-5.326-1.007-0.47-2.089-0.703-3.17-0.703-1.242,0-2.481,0.309-3.601,0.921-3.366,1.842-7.157,2.815-10.963,2.815-8.331,0-16.012-4.52-20.045-11.795-6.086-10.979-2.131-24.911 8.816-31.056 2.081-1.168 3.482-3.257 3.773-5.626 0.291-2.369-0.563-4.735-2.3-6.372-9.135-8.609-9.602-23.084-1.042-32.265 4.376-4.693 10.323-7.277 16.744-7.277 5.765,0 11.275,2.154 15.515,6.065 1.754,1.617 4.172,2.306 6.517,1.85 2.343-0.455 4.329-1.999 5.349-4.156 3.766-7.965 11.896-13.112 20.712-13.112 3.343,0 6.59,0.724 9.651,2.151 11.377,5.306 16.366,18.9 11.122,30.306-0.997,2.169-0.903,4.683 0.254,6.77 1.157,2.088 3.238,3.5 5.606,3.804 12.455,1.594 21.341,13.029 19.811,25.488z" fill="#FFFFFF"/>
      <path d="m127.428,157.235c2.74-7.528 2.385-15.674-1.001-22.936-4.907-10.523-15.584-17.323-27.2-17.323-4.395,0-8.654,0.946-12.662,2.815-14.989,6.99-21.498,24.872-14.508,39.86 4.907,10.523 15.583,17.323 27.199,17.323 4.395,0 8.655-0.947 12.661-2.814 7.263-3.385 12.771-9.396 15.511-16.925zm-14.095-5.131c-1.37,3.764-4.124,6.769-7.753,8.461-2.007,0.937-4.134,1.411-6.322,1.41-5.811,0-11.151-3.4-13.605-8.663-3.494-7.493-0.241-16.432 7.252-19.926 2.007-0.937 4.134-1.41 6.322-1.41 5.811,0 11.151,3.4 13.605,8.662 1.693,3.632 1.87,7.704 0.501,11.466z" fill="#FFFFFF"/>
    </g>
  </g>
</svg>
