<?xml version="1.0" encoding="iso-8859-1"?>
<!-- Generator: Adobe Illustrator 16.0.0, SVG Export Plug-In . SVG Version: 6.00 Build 0)  -->
<!DOCTYPE svg PUBLIC "-//W3C//DTD SVG 1.1//EN" "http://www.w3.org/Graphics/SVG/1.1/DTD/svg11.dtd">
<svg xmlns="http://www.w3.org/2000/svg" xmlns:xlink="http://www.w3.org/1999/xlink" version="1.1" id="Capa_1" x="0px" y="0px" width="512px" height="512px" viewBox="0 0 102.645 102.645" style="enable-background:new 0 0 102.645 102.645;" xml:space="preserve">
<g>
	<g>
		<path d="M70.35,40.275c-0.661-0.25-1.413-0.478-2.256-0.66c-0.835-0.154-1.711-0.199-2.655-0.206    c-0.951-0.01-1.861,0.157-2.834,0.342c-0.961,0.207-1.871,0.534-2.799,0.916c-0.89,0.409-1.759,0.893-2.58,1.437    c-0.78,0.57-1.571,1.166-2.236,1.846c-0.68,0.672-1.297,1.384-1.812,2.144c-1.064,1.494-1.769,3.137-2.197,4.651    c-0.207,0.771-0.351,1.5-0.431,2.181c-0.087,0.675-0.087,1.321-0.087,1.842c-0.01,0.246,0.003,0.485,0.017,0.698    c0.197-0.227,0.407-0.473,0.635-0.732c1.149-1.283,2.755-2.926,4.518-4.399c0.876-0.736,1.807-1.408,2.689-2.011    c0.459-0.277,0.903-0.544,1.328-0.802c0.438-0.221,0.849-0.435,1.231-0.631c0.397-0.161,0.76-0.305,1.082-0.438    c0.314-0.144,0.615-0.195,0.855-0.271c0.479-0.132,0.753-0.208,0.753-0.208s-0.268,0.094-0.732,0.265    c-0.233,0.091-0.521,0.17-0.821,0.337c-0.309,0.154-0.657,0.325-1.033,0.512c-0.363,0.221-0.746,0.462-1.164,0.715    c-0.391,0.279-0.805,0.576-1.235,0.886c-0.825,0.659-1.681,1.388-2.478,2.176c-1.608,1.569-3.048,3.294-4.061,4.632    c-0.288,0.373-0.532,0.716-0.75,1.017c0.282,0,0.637,0.014,1.034-0.024c0.501-0.037,1.134-0.044,1.77-0.123    c0.648-0.071,1.341-0.164,2.053-0.301c0.717-0.123,1.436-0.309,2.175-0.503c0.732-0.198,1.451-0.452,2.17-0.719    c0.701-0.294,1.403-0.589,2.061-0.951c0.656-0.377,1.307-0.716,1.909-1.153c1.222-0.82,2.32-1.752,3.288-2.786    c0.49-0.476,0.948-1.064,1.387-1.588c0.431-0.518,0.849-1.114,1.238-1.656c0.397-0.53,0.773-1.069,1.123-1.602    c0.369-0.551,0.697-1.023,0.965-1.417c0.294-0.378,0.52-0.803,0.688-1.037c0.172-0.274,0.264-0.421,0.264-0.421    s-0.12-0.125-0.349-0.312c-0.227-0.174-0.582-0.498-1.034-0.756C71.599,40.912,70.999,40.51,70.35,40.275z" fill="#91DC5A"/>
		<path d="M84.835,65.377v-5.479H49.648c0.214-5.435,1.051-11.052,1.77-14.423c0.421-1.963,0.792-3.725,1.023-5.246    c3.049-0.19,5.469-2.699,5.469-5.785c0-0.38-0.034-0.786-0.1-1.203c0.185,0.228,0.366,0.471,0.558,0.659    c2.272,2.271,5.969,2.271,8.24,0c2.201-2.2,2.252-5.708,0.206-7.993c3.151-0.073,5.688-2.646,5.688-5.814    c0-3.217-2.607-5.828-5.824-5.828c-0.261,0-0.53,0.029-0.805,0.06c0.147-0.126,0.325-0.251,0.452-0.382    c2.275-2.273,2.275-5.964,0-8.245c-2.276-2.271-5.965-2.271-8.237,0c-0.178,0.178-0.343,0.398-0.507,0.616    c0.007-0.165,0.021-0.332,0.021-0.489c0-3.217-2.612-5.825-5.83-5.825c-3.109,0-5.624,2.438-5.792,5.501    c-2.286-2.116-5.841-2.081-8.068,0.144c-2.274,2.274-2.274,5.965,0,8.242c0.253,0.25,0.558,0.501,0.876,0.736    c-0.248-0.027-0.498-0.048-0.732-0.048c-3.217,0-5.828,2.606-5.828,5.826c0,3.2,2.587,5.797,5.78,5.821    c-2.209,2.277-2.195,5.915,0.058,8.168c2.26,2.26,5.908,2.267,8.186,0.042c0,0.004,0,0.007,0,0.011    c0,2.689,1.841,4.937,4.326,5.605c-0.224,1.444-0.585,3.142-0.989,5.041c-0.519,2.413-1.086,5.094-1.458,7.751    c-0.01-0.045-0.01-0.079-0.024-0.12c-0.305-1.08-0.806-2.247-1.564-3.304c-0.364-0.541-0.802-1.049-1.285-1.528    c-0.474-0.48-1.033-0.903-1.588-1.311c-0.585-0.385-1.201-0.726-1.832-1.02c-0.659-0.267-1.308-0.505-1.987-0.652    c-0.691-0.13-1.336-0.248-2.012-0.238c-0.672,0-1.292,0.034-1.886,0.144c-0.599,0.13-1.138,0.287-1.605,0.465    c-0.462,0.167-0.886,0.455-1.201,0.645c-0.322,0.185-0.571,0.412-0.729,0.536c-0.164,0.133-0.248,0.221-0.248,0.221    s0.062,0.103,0.185,0.297c0.12,0.17,0.284,0.467,0.491,0.736c0.188,0.277,0.421,0.618,0.683,1.006    c0.25,0.378,0.518,0.765,0.799,1.14c0.284,0.381,0.575,0.806,0.883,1.174c0.308,0.371,0.631,0.792,0.982,1.127    c0.686,0.732,1.468,1.396,2.337,1.978c0.428,0.312,0.89,0.555,1.358,0.814c0.467,0.26,0.965,0.473,1.465,0.678    c0.508,0.188,1.02,0.369,1.538,0.513c0.527,0.138,1.035,0.268,1.547,0.359c0.505,0.093,0.998,0.165,1.458,0.216    c0.448,0.059,0.9,0.065,1.254,0.086c0.234,0.021,0.428,0.014,0.606,0.014c-0.031,0.824-0.024,1.889,0.017,3.083H17.809v5.482    h30.424c0.122,0.944,0.269,1.882,0.441,2.807H20.09c0,0,3.651,34.454,15.167,34.454c11.519,0,15.479,0,29.904,0    c14.428,0,16.725-34.454,16.725-34.454H49.977c-0.135-0.883-0.221-1.828-0.282-2.807h35.14V65.377z M47.115,20.09    c0-2.803,2.277-5.085,5.085-5.085c2.799,0,5.087,2.283,5.087,5.085c0,2.805-2.284,5.085-5.087,5.085    C49.392,25.179,47.115,22.895,47.115,20.09z M47.349,56.096c-0.72-0.951-1.74-2.176-2.883-3.292    c-0.568-0.558-1.17-1.081-1.759-1.543c-0.305-0.221-0.599-0.428-0.873-0.632c-0.297-0.178-0.571-0.351-0.826-0.508    c-0.271-0.132-0.512-0.255-0.732-0.364c-0.214-0.118-0.421-0.171-0.585-0.238c-0.331-0.12-0.521-0.188-0.521-0.188    s0.193,0.055,0.534,0.147c0.167,0.055,0.385,0.091,0.605,0.195c0.228,0.092,0.491,0.197,0.771,0.308    c0.272,0.141,0.566,0.291,0.876,0.45c0.297,0.185,0.616,0.368,0.946,0.57c0.63,0.424,1.285,0.905,1.913,1.427    c1.177,0.985,2.235,2.063,3.037,2.95c-0.034,0.428-0.066,0.855-0.083,1.276C47.637,56.473,47.512,56.302,47.349,56.096z" fill="#adb02f"/>
	</g>
</g>
<g>
</g>
<g>
</g>
<g>
</g>
<g>
</g>
<g>
</g>
<g>
</g>
<g>
</g>
<g>
</g>
<g>
</g>
<g>
</g>
<g>
</g>
<g>
</g>
<g>
</g>
<g>
</g>
<g>
</g>
</svg>
