<?xml version="1.0" encoding="iso-8859-1"?>
<!-- Generator: Adobe Illustrator 19.0.0, SVG Export Plug-In . SVG Version: 6.00 Build 0)  -->
<svg xmlns="http://www.w3.org/2000/svg" xmlns:xlink="http://www.w3.org/1999/xlink" version="1.1" id="Layer_1" x="0px" y="0px" viewBox="0 0 512 512" style="enable-background:new 0 0 512 512;" xml:space="preserve" width="512px" height="512px">
<g>
	<g>
		<path d="M128,289.391c-46.032,0-83.478,37.446-83.478,83.478c0,46.032,37.446,83.478,83.478,83.478    c46.032,0,83.478-37.446,83.478-83.478C211.478,326.837,174.032,289.391,128,289.391z M128,422.957    c-27.619,0-50.087-22.468-50.087-50.087s22.468-50.087,50.087-50.087c27.619,0,50.087,22.468,50.087,50.087    S155.619,422.957,128,422.957z" fill="#7DA500"/>
	</g>
</g>
<g>
	<g>
		<path d="M461.913,356.174c-27.619,0-50.087,22.468-50.087,50.087s22.468,50.087,50.087,50.087    c27.619,0,50.087-22.468,50.087-50.087S489.532,356.174,461.913,356.174z M461.913,422.957c-9.206,0-16.696-7.49-16.696-16.696    s7.49-16.696,16.696-16.696s16.696,7.49,16.696,16.696S471.119,422.957,461.913,422.957z" fill="#7DA500"/>
	</g>
</g>
<g>
	<g>
		<path d="M414.302,201.288l-166.924-50.079c-8.793-2.639-18.149,2.396-20.788,11.191l-5.731,19.086l198.919,59.674l5.718-19.089    C428.141,213.242,423.13,203.937,414.302,201.288z" fill="#7DA500"/>
	</g>
</g>
<g>
	<g>
		<path d="M466.707,290.098L139.713,192L76.152,64.88c-2.826-5.652-8.608-9.228-14.935-9.228H16.696C7.479,55.652,0,63.131,0,72.348    s7.479,16.696,16.696,16.696h34.206l60.403,120.815v47.476C116.772,256.546,122.318,256,128,256    c64.445,0,116.87,52.424,116.87,116.87c0,17.94-4.182,34.881-11.434,50.087h146.682c-1.101-5.397-1.682-10.978-1.682-16.696    c-0.001-46.032,37.445-83.478,83.477-83.478c5.718,0,11.299,0.581,16.696,1.682v-18.377    C478.609,298.717,473.771,292.217,466.707,290.098z M350.609,356.174h-66.783c-9.217,0-16.696-7.479-16.696-16.696    s7.479-16.696,16.696-16.696h66.783c9.217,0,16.696,7.479,16.696,16.696S359.826,356.174,350.609,356.174z" fill="#7DA500"/>
	</g>
</g>
<g>
</g>
<g>
</g>
<g>
</g>
<g>
</g>
<g>
</g>
<g>
</g>
<g>
</g>
<g>
</g>
<g>
</g>
<g>
</g>
<g>
</g>
<g>
</g>
<g>
</g>
<g>
</g>
<g>
</g>
</svg>
