<?xml version="1.0" encoding="iso-8859-1"?>
<!-- Generator: Adobe Illustrator 17.1.0, SVG Export Plug-In . SVG Version: 6.00 Build 0)  -->
<!DOCTYPE svg PUBLIC "-//W3C//DTD SVG 1.1//EN" "http://www.w3.org/Graphics/SVG/1.1/DTD/svg11.dtd">
<svg xmlns="http://www.w3.org/2000/svg" xmlns:xlink="http://www.w3.org/1999/xlink" version="1.1" id="Capa_1" x="0px" y="0px" viewBox="0 0 197.344 197.344" style="enable-background:new 0 0 197.344 197.344;" xml:space="preserve" width="512px" height="512px">
<path d="M179.926,181.438c-9.604,0-17.418-7.813-17.418-17.418c0-0.223,0.004-0.444,0.013-0.665H81.584  c-2.529,10.365-11.895,18.08-23.027,18.08c-13.067,0-23.699-10.632-23.699-23.699c0-9.551,5.679-17.801,13.837-21.55l-7.914-30.071  c0-0.001,0-0.001,0-0.002L18.066,20.906H2.5c-1.381,0-2.5-1.119-2.5-2.5s1.119-2.5,2.5-2.5h17.487c1.133,0,2.124,0.762,2.416,1.856  l22.817,85.598l32.956,7.18l0.08-7.517l-3.798-0.264c-1.316-0.092-2.335-1.189-2.327-2.509l0.08-14.043  c0-0.055,0.003-0.109,0.007-0.164c0.41-5.728,5.402-10.059,11.13-9.641c0.067,0.005,0.135,0.012,0.202,0.022l59.188,9.127  c5.642,0.463,9.893,5.378,9.538,11.029l-0.018,8.901c-0.001,0.692-0.29,1.353-0.796,1.825c-0.508,0.471-1.193,0.716-1.877,0.664  l-2.642-0.184l0.161,17.768l24.147,5.261c7.661,1.668,13.227,8.559,13.251,16.396c7.391,2.016,12.839,8.787,12.839,16.808  C197.344,173.625,189.53,181.438,179.926,181.438z M167.758,161.532c-0.164,0.804-0.25,1.636-0.25,2.488  c0,6.848,5.57,12.418,12.418,12.418s12.418-5.57,12.418-12.418c0-6.169-4.522-11.303-10.426-12.259  c-0.087-0.003-0.174-0.01-0.261-0.022c-0.661-0.093-1.209-0.137-1.725-0.137c-0.005,0-0.015,0-0.022,0c-0.001,0-0.002,0-0.002,0  c-5.796,0.009-10.89,4.119-12.113,9.781C167.784,161.433,167.772,161.483,167.758,161.532z M52.176,140.157  c-7.178,2.614-12.318,9.508-12.318,17.579c0,10.311,8.389,18.699,18.699,18.699c9.29,0,17.021-6.811,18.46-15.7  c0.004-0.081,0.012-0.163,0.023-0.245c0.079-0.536,0.137-1.026,0.175-1.487c0.027-0.419,0.042-0.841,0.042-1.267  c0-8.723-6.002-16.068-14.093-18.126c-3.365-0.854-7.138-0.757-10.671,0.461C52.389,140.106,52.283,140.135,52.176,140.157z   M82.258,158.355h81.195c2.312-6.699,8.603-11.563,16.033-11.747c-0.296-5.25-4.114-9.777-9.297-10.906l0,0L46.655,108.79  l6.79,25.801c3.535-0.78,7.454-0.716,10.948,0.173c10.261,2.603,17.874,11.916,17.874,22.976  C82.268,157.943,82.265,158.148,82.258,158.355z M83.165,111.625l58.932,12.839l-0.153-16.958l-58.69-4.032L83.165,111.625z   M77.146,97.933l70.119,4.866l0.013-6.309c0-0.058,0.002-0.116,0.007-0.174c0.103-1.442-0.361-2.838-1.308-3.931  s-2.262-1.752-3.703-1.855c-0.067-0.005-0.135-0.012-0.202-0.022l-59.173-9.125c-2.921-0.124-5.438,2.035-5.688,4.943L77.146,97.933  z M159.058,174.682H83.637c-1.381,0-2.5-1.119-2.5-2.5s1.119-2.5,2.5-2.5h75.421c1.381,0,2.5,1.119,2.5,2.5  S160.438,174.682,159.058,174.682z M179.926,173.08c-4.995,0-9.06-4.064-9.06-9.06c0-4.996,4.064-9.061,9.06-9.061  c4.996,0,9.061,4.064,9.061,9.061C188.986,169.015,184.922,173.08,179.926,173.08z M179.926,159.959c-2.238,0-4.06,1.821-4.06,4.061  c0,2.238,1.821,4.06,4.06,4.06c2.239,0,4.061-1.821,4.061-4.06C183.986,161.781,182.165,159.959,179.926,159.959z M58.659,168.629  c-6.007,0-10.895-4.887-10.895-10.894s4.888-10.895,10.895-10.895s10.894,4.888,10.894,10.895S64.666,168.629,58.659,168.629z   M58.659,151.841c-3.25,0-5.895,2.645-5.895,5.895s2.645,5.894,5.895,5.894s5.894-2.644,5.894-5.894S61.909,151.841,58.659,151.841z  " fill="#FFFFFF"/>
<g>
</g>
<g>
</g>
<g>
</g>
<g>
</g>
<g>
</g>
<g>
</g>
<g>
</g>
<g>
</g>
<g>
</g>
<g>
</g>
<g>
</g>
<g>
</g>
<g>
</g>
<g>
</g>
<g>
</g>
</svg>
