<?xml version="1.0" encoding="iso-8859-1"?>
<!-- Generator: Adobe Illustrator 19.0.0, SVG Export Plug-In . SVG Version: 6.00 Build 0)  -->
<svg xmlns="http://www.w3.org/2000/svg" xmlns:xlink="http://www.w3.org/1999/xlink" version="1.1" id="Capa_1" x="0px" y="0px" viewBox="0 0 512 512" style="enable-background:new 0 0 512 512;" xml:space="preserve" width="512px" height="512px">
<g>
	<g>
		<path d="M403.774,410.046c-12.606,0-22.862,10.256-22.862,22.861c0,12.606,10.257,22.862,22.862,22.862    c12.606,0,22.861-10.257,22.861-22.862C426.636,420.302,416.38,410.046,403.774,410.046z M403.774,440.77    c-4.335,0-7.862-3.526-7.862-7.861c0-4.334,3.526-7.86,7.862-7.86c4.334,0,7.86,3.526,7.86,7.86    C411.635,437.244,408.109,440.77,403.774,440.77z" fill="#FFFFFF"/>
	</g>
</g>
<g>
	<g>
		<path d="M155.316,410.046c-12.606,0-22.861,10.256-22.861,22.861c0,12.606,10.256,22.862,22.861,22.862    s22.862-10.257,22.862-22.862C178.179,420.302,167.922,410.046,155.316,410.046z M155.316,440.77c-4.334,0-7.86-3.526-7.86-7.861    c0-4.334,3.526-7.86,7.86-7.86c4.335,0,7.861,3.526,7.861,7.86C163.178,437.244,159.652,440.77,155.316,440.77z" fill="#FFFFFF"/>
	</g>
</g>
<g>
	<g>
		<path d="M499.831,361.713v-64.426c0-13.702-11.148-24.85-24.85-24.85h-20.693v-25.994c0-13.702-11.148-24.851-24.851-24.851    H273.289c-13.702,0-24.851,11.148-24.851,24.851v25.994H118.735L86.859,65.65c-3.312-21.482-21.491-37.074-43.228-37.074H7.5    c-4.143,0-7.5,3.357-7.5,7.5s3.357,7.5,7.5,7.5h36.132c14.281,0,26.226,10.245,28.402,24.358l31.523,204.5H92.321    c-13.702,0-24.851,11.148-24.851,24.85v64.426c-7.279,4.338-12.169,12.288-12.169,21.359v21.687    c0,13.702,11.148,24.851,24.851,24.851h24.769c-1.906,29.39,21.506,53.813,50.394,53.813c28.845,0,52.303-24.383,50.394-53.813    h60.44c4.143,0,7.5-3.357,7.5-7.5s-3.357-7.5-7.5-7.5h-63.736c-16.527-42.648-77.539-42.983-94.195,0H80.152    c-5.431,0-9.85-4.418-9.85-9.85v-21.686c0-4.249,2.731-8.069,6.923-9.399c0.502-0.158,1.084-0.279,1.584-0.348    c0.444-0.062,0.892-0.102,1.342-0.102c425.918,0,407.199-0.056,408.338,0.102c4.883,0.669,8.509,4.84,8.509,9.747v21.687    c0,5.431-4.418,9.85-9.85,9.85H450.87c-16.552-42.712-77.502-43.074-94.194,0h-55.524c-4.143,0-7.5,3.357-7.5,7.5    s3.357,7.5,7.5,7.5h52.228c-1.906,29.39,21.506,53.813,50.394,53.813c28.89,0,52.299-24.425,50.393-53.813h32.982    c13.702,0,24.85-11.148,24.85-24.851v-21.687C512,374,507.111,366.052,499.831,361.713z M144.83,398.979    c22.501-6.968,46,9.86,46,33.93c-0.001,19.582-15.931,35.513-35.513,35.513c-19.582,0-35.513-15.931-35.513-35.513    C119.803,417.135,130.219,403.481,144.83,398.979z M263.44,246.443c0-5.431,4.418-9.85,9.85-9.85h156.148    c5.431,0,9.85,4.418,9.85,9.85v25.994H263.44V246.443z M484.831,317.018H351.363c-4.143,0-7.5,3.357-7.5,7.5    c0,4.143,3.357,7.5,7.5,7.5H484.83v26.205H162.817v-0.001v-17.493c0-4.143-3.357-7.5-7.5-7.5s-7.5,3.357-7.5,7.5v17.493H82.472    v-60.935c0-5.431,4.418-9.85,9.85-9.85h55.483c0.007,0,0,0,0.007,0c0.004,0,0,0,0.004,0v18.289c0,4.143,3.357,7.5,7.5,7.5    s7.5-3.357,7.5-7.5v-18.289h312.165c5.431,0,9.85,4.418,9.85,9.85V317.018z M403.774,468.422    c-19.582,0-35.513-15.931-35.513-35.513c0-24.799,24.818-41.8,47.806-33.316c13.541,5.012,23.218,18.054,23.218,33.316    C439.287,452.491,423.356,468.422,403.774,468.422z" fill="#FFFFFF"/>
	</g>
</g>
<g>
</g>
<g>
</g>
<g>
</g>
<g>
</g>
<g>
</g>
<g>
</g>
<g>
</g>
<g>
</g>
<g>
</g>
<g>
</g>
<g>
</g>
<g>
</g>
<g>
</g>
<g>
</g>
<g>
</g>
</svg>
