<?xml version="1.0" encoding="iso-8859-1"?>
<!-- Generator: Adobe Illustrator 19.0.0, SVG Export Plug-In . SVG Version: 6.00 Build 0)  -->
<svg version="1.1" id="Layer_1" xmlns="http://www.w3.org/2000/svg" xmlns:xlink="http://www.w3.org/1999/xlink" x="0px" y="0px"
	 viewBox="0 0 511.999 511.999" style="enable-background:new 0 0 511.999 511.999;" xml:space="preserve">
<path style="fill:#82D78C;" d="M242.029,378.805C180.351,371.866,132.413,319.531,132.413,256c0-99.31,55.331-256,123.586-256
	s123.586,156.69,123.586,256c0,63.795-48.335,116.299-110.382,122.889L242.029,378.805z"/>
<path style="fill:#7CC686;" d="M194.206,256c0-87.478,36.806-219.417,85.56-249.63C272.072,2.283,264.132,0,255.999,0
	c-68.255,0-123.586,156.69-123.586,256c0,63.531,47.938,115.865,109.615,122.805l27.175,0.084c3.599-0.383,7.14-0.954,10.641-1.639
	C231.058,366.197,194.206,316.15,194.206,256z"/>
<path style="fill:#91E189;" d="M346.995,203.03c-4.177,0-7.887-2.969-8.672-7.224c-5.918-32.052-16.073-65.276-28.599-93.56
	c-1.974-4.457,0.043-9.673,4.5-11.647c4.436-1.978,9.668,0.034,11.647,4.5c13.065,29.508,23.651,64.134,29.815,97.5
	c0.884,4.793-2.284,9.401-7.078,10.284C348.065,202.983,347.525,203.03,346.995,203.03z"/>
<path style="fill:#A0EB87;" d="M300.151,73.551c-2.957,0-5.845-1.483-7.513-4.181c-4.715-7.608-9.457-14.13-14.103-19.38
	c-3.229-3.651-2.888-9.233,0.762-12.461c3.659-3.242,9.224-2.883,12.461,0.762c5.306,5.996,10.65,13.327,15.887,21.784
	c2.569,4.142,1.289,9.587-2.858,12.151C303.344,73.126,301.736,73.551,300.151,73.551z"/>
<path style="fill:#64826E;" d="M315.206,288.724c3.448-3.448,3.448-9.035,0-12.483c-3.448-3.448-9.035-3.448-12.483,0
	l-36.217,36.217c-0.399-14.111-0.744-28.99-1.014-44.641l32.06-32.06c3.448-3.448,3.448-9.035,0-12.483s-9.035-3.448-12.483,0
	l-19.933,19.933c-0.199-17.099-0.309-35.016-0.309-53.764c0-4.875-3.948-8.828-8.828-8.828c-4.879,0-8.828,3.953-8.828,8.828
	c0,35.32-0.388,67.725-1.032,97.18l-28.038-28.038c-3.448-3.448-9.035-3.448-12.483,0c-3.448,3.448-3.448,9.035,0,12.483
	l39.913,39.913c-2.826,100.962-8.518,162.735-10.677,183.363h-5.337c-4.875,0-8.828,3.953-8.828,8.828s3.953,8.828,8.828,8.828
	h52.965c4.875,0,8.828-3.953,8.828-8.828s-3.953-8.828-8.828-8.828h-5.341c-1.971-18.808-6.881-71.835-9.873-157.684
	L315.206,288.724z"/>
<g>
</g>
<g>
</g>
<g>
</g>
<g>
</g>
<g>
</g>
<g>
</g>
<g>
</g>
<g>
</g>
<g>
</g>
<g>
</g>
<g>
</g>
<g>
</g>
<g>
</g>
<g>
</g>
<g>
</g>
</svg>
