<?xml version="1.0" encoding="iso-8859-1"?>
<!-- Generator: Adobe Illustrator 19.0.0, SVG Export Plug-In . SVG Version: 6.00 Build 0)  -->
<svg version="1.1" id="Layer_1" xmlns="http://www.w3.org/2000/svg" xmlns:xlink="http://www.w3.org/1999/xlink" x="0px" y="0px"
	 viewBox="0 0 512 512" style="enable-background:new 0 0 512 512;" xml:space="preserve">
<path style="fill:#C8E650;" d="M476.69,414.897H35.31c-9.751,0-17.655-7.904-17.655-17.655v-26.483h476.69v26.483
	C494.345,406.993,486.441,414.897,476.69,414.897z"/>
<path style="fill:#82D78C;" d="M97.103,97.103c-40.289,0-61.793,125.646-61.793,150.069c0,34.073,27.72,61.793,61.793,61.793
	s61.793-27.72,61.793-61.793C158.897,222.75,137.393,97.103,97.103,97.103z"/>
<path style="fill:#7CC686;" d="M61.793,247.172c0-21.59,16.818-122.231,48.552-145.294c-4.162-3.025-8.57-4.775-13.241-4.775
	c-40.289,0-61.793,125.646-61.793,150.069c0,34.073,27.72,61.793,61.793,61.793c4.548,0,8.97-0.527,13.241-1.464
	C82.62,301.418,61.793,276.697,61.793,247.172z"/>
<path style="fill:#64826E;" d="M121,240.931c-3.448-3.448-9.035-3.448-12.483,0l-2.585,2.586v-14.001
	c0-4.875-3.953-8.828-8.828-8.828c-4.875,0-8.828,3.953-8.828,8.828v31.656l-2.586-2.586c-3.448-3.448-9.035-3.448-12.483,0
	c-3.448,3.448-3.448,9.035,0,12.483l15.07,15.069v84.62h17.655V268.482L121,253.414C124.448,249.965,124.448,244.38,121,240.931z"/>
<polygon style="fill:#FFDCA0;" points="459.034,229.517 361.931,167.724 264.828,229.517 264.828,370.759 459.034,370.759 "/>
<path style="fill:#82D78C;" d="M203.034,211.862c-26.354,0-35.31,73.013-35.31,79.448c0,19.47,15.84,35.31,35.31,35.31
	s35.31-15.84,35.31-35.31C238.345,284.875,229.388,211.862,203.034,211.862z"/>
<path style="fill:#7CC686;" d="M185.379,291.31c0-5.655,6.926-62.675,26.483-76.436c-2.7-1.9-5.631-3.012-8.828-3.012
	c-26.354,0-35.31,73.013-35.31,79.448c0,19.47,15.84,35.31,35.31,35.31c3.065,0,5.99-0.516,8.828-1.254
	C196.676,321.419,185.379,307.714,185.379,291.31z"/>
<g>
	<path style="fill:#64826E;" d="M317.793,335.448h-17.655c-4.875,0-8.828-3.953-8.828-8.828v-61.793
		c0-4.875,3.953-8.828,8.828-8.828h17.655c4.875,0,8.828,3.953,8.828,8.828v61.793C326.621,331.496,322.668,335.448,317.793,335.448
		z"/>
	<path style="fill:#64826E;" d="M467.853,247.172c-1.681,0-3.383-0.479-4.888-1.483l-101.034-67.358l-101.035,67.358
		c-4.061,2.698-9.543,1.603-12.242-2.449c-2.702-4.056-1.608-9.539,2.449-12.242l105.931-70.621c2.966-1.974,6.828-1.974,9.793,0
		l105.931,70.621c4.056,2.702,5.151,8.185,2.449,12.242C473.504,245.793,470.707,247.172,467.853,247.172z"/>
	<path style="fill:#64826E;" d="M203.034,291.31c-4.875,0-8.828,3.953-8.828,8.828v70.621h17.655v-70.621
		C211.862,295.263,207.91,291.31,203.034,291.31z"/>
</g>
<path style="fill:#A0DC64;" d="M503.172,379.586H8.828c-4.875,0-8.828-3.953-8.828-8.828l0,0c0-4.875,3.953-8.828,8.828-8.828
	h494.345c4.875,0,8.828,3.953,8.828,8.828l0,0C512,375.634,508.047,379.586,503.172,379.586z"/>
<path style="fill:#82D78C;" d="M326.621,273.655h-35.31v-8.828c0-4.875,3.953-8.828,8.828-8.828h17.655
	c4.875,0,8.828,3.953,8.828,8.828V273.655z"/>
<path style="fill:#64826E;" d="M370.759,335.448h-17.655c-4.875,0-8.828-3.953-8.828-8.828v-61.793c0-4.875,3.953-8.828,8.828-8.828
	h17.655c4.875,0,8.828,3.953,8.828,8.828v61.793C379.586,331.496,375.634,335.448,370.759,335.448z"/>
<path style="fill:#82D78C;" d="M379.586,273.655h-35.31v-8.828c0-4.875,3.953-8.828,8.828-8.828h17.655
	c4.875,0,8.828,3.953,8.828,8.828V273.655z"/>
<path style="fill:#64826E;" d="M423.724,335.448h-17.655c-4.875,0-8.828-3.953-8.828-8.828v-61.793c0-4.875,3.953-8.828,8.828-8.828
	h17.655c4.875,0,8.828,3.953,8.828,8.828v61.793C432.552,331.496,428.599,335.448,423.724,335.448z"/>
<path style="fill:#82D78C;" d="M432.552,273.655h-35.31v-8.828c0-4.875,3.953-8.828,8.828-8.828h17.655
	c4.875,0,8.828,3.953,8.828,8.828V273.655z"/>
<g>
</g>
<g>
</g>
<g>
</g>
<g>
</g>
<g>
</g>
<g>
</g>
<g>
</g>
<g>
</g>
<g>
</g>
<g>
</g>
<g>
</g>
<g>
</g>
<g>
</g>
<g>
</g>
<g>
</g>
</svg>
