<?xml version="1.0" encoding="iso-8859-1"?>
<!-- Generator: Adobe Illustrator 19.0.0, SVG Export Plug-In . SVG Version: 6.00 Build 0)  -->
<svg version="1.1" id="Layer_1" xmlns="http://www.w3.org/2000/svg" xmlns:xlink="http://www.w3.org/1999/xlink" x="0px" y="0px"
	 viewBox="0 0 512 512" style="enable-background:new 0 0 512 512;" xml:space="preserve">
<path style="fill:#5B5D6E;" d="M348.679,304.555h-97.11c-7.313,0-13.242-5.929-13.242-13.242l0,0
	c0-7.313,5.929-13.242,13.242-13.242h97.11c7.313,0,13.242,5.929,13.242,13.242l0,0
	C361.922,298.626,355.992,304.555,348.679,304.555z"/>
<path style="fill:#707487;" d="M20.11,138.161c-3.478-4-3.268-10.07,0.483-13.819l25.42-25.42c3.448-3.449,3.448-9.036,0-12.484
	s-9.036-3.449-12.484,0l-25.42,25.42c-10.28,10.28-10.859,26.924-1.319,37.89l178.033,204.742l13.319-11.587L20.11,138.161z"/>
<path style="fill:#FABE46;" d="M375.677,304.555H224.572c-8.046,0-15.655,3.657-20.681,9.939l-27.361,34.201h247.188l-27.361-34.201
	C391.332,308.212,383.722,304.555,375.677,304.555z"/>
<rect x="141.218" y="331.045" style="fill:#FFD250;" width="317.814" height="88.282"/>
<rect x="141.218" y="401.67" style="fill:#FABE46;" width="317.814" height="17.656"/>
<circle style="fill:#D7DEED;" cx="459.031" cy="375.186" r="44.141"/>
<path style="fill:#707487;" d="M361.922,278.07H238.327c-9.752,0-17.656-7.905-17.656-17.656v-42.071
	c0-10.523,9.147-18.71,19.606-17.548l115.74,12.86c13.412,1.49,23.56,12.827,23.56,26.322v20.436
	C379.578,270.165,371.672,278.07,361.922,278.07z"/>
<path style="fill:#5B5D6E;" d="M459.031,428.149c-29.209,0-52.969-23.76-52.969-52.969c0-29.209,23.76-52.969,52.969-52.969
	S512,345.971,512,375.18C512,404.389,488.239,428.149,459.031,428.149z M459.031,339.868c-19.472,0-35.313,15.841-35.313,35.313
	c0,19.472,15.841,35.313,35.313,35.313s35.313-15.841,35.313-35.313C494.344,355.709,478.502,339.868,459.031,339.868z"/>
<circle style="fill:#C7CFE2;" cx="459.031" cy="375.186" r="17.656"/>
<circle style="fill:#D7DEED;" cx="141.218" cy="375.186" r="44.141"/>
<path style="fill:#5B5D6E;" d="M141.218,428.149c-29.209,0-52.969-23.76-52.969-52.969c0-29.209,23.76-52.969,52.969-52.969
	s52.969,23.76,52.969,52.969C194.187,404.389,170.426,428.149,141.218,428.149z M141.218,339.868
	c-19.472,0-35.313,15.841-35.313,35.313c0,19.472,15.841,35.313,35.313,35.313s35.313-15.841,35.313-35.313
	C176.53,355.709,160.688,339.868,141.218,339.868z"/>
<circle style="fill:#C7CFE2;" cx="141.218" cy="375.186" r="17.656"/>
<circle style="fill:#464655;" cx="300.125" cy="278.076" r="13.242"/>
<g>
</g>
<g>
</g>
<g>
</g>
<g>
</g>
<g>
</g>
<g>
</g>
<g>
</g>
<g>
</g>
<g>
</g>
<g>
</g>
<g>
</g>
<g>
</g>
<g>
</g>
<g>
</g>
<g>
</g>
</svg>
