<?xml version="1.0"?>
<svg xmlns="http://www.w3.org/2000/svg" xmlns:xlink="http://www.w3.org/1999/xlink" version="1.1" id="Capa_1" x="0px" y="0px" viewBox="0 0 467.145 467.145" style="enable-background:new 0 0 467.145 467.145;" xml:space="preserve" width="512px" height="512px"><g transform="matrix(-0.989604 2.42383e-16 2.42383e-16 0.989604 464.717 2.4282)"><g>
	<g>
		<path d="M462.8,149.572c-15.2-24.8-64.8-16-87.2-10.4v-10.4c0-8.8-7.2-16-16-16h-172c-8.8,0-16,7.2-16,16v92l-80-40l-17.6-56    c-0.8-3.2-3.2-4.8-6.4-5.6c-3.2-0.8-6.4,0.8-8,4l-58.4,91.2c-1.6,2.4-1.6,5.6,0,8.8c1.6,2.4,4,4,7.2,4h0.8l55.2-4.8l107.2,75.2    v40.8c0,8.8,7.2,16,16,16h172c8.8,0,16-7.2,16-16v-38.4C450.8,223.172,478.8,175.172,462.8,149.572z M61.2,205.572l-38.4,4    l40.8-64l12,39.2L61.2,205.572z M171.6,278.372l-94.4-66.4l2.4-4l8-11.2l84,41.6V278.372z M359.6,338.372h-172v-13.6h172V338.372z     M359.6,149.572v146.4v12.8h-172v-15.2v-60v-104.8h172V149.572z M375.6,276.772v-86.4c12.8-6.4,39.2-17.6,55.2-11.2    c5.6,2.4,8.8,6.4,11.2,12.8C432.4,210.372,412.4,236.772,375.6,276.772z M450,173.572c-3.2-4-8-7.2-12.8-9.6    c-20-8-46.4,1.6-61.6,8v-16.8c23.2-5.6,64.8-12,73.6,2.4C450.8,159.972,452.4,164.772,450,173.572z" data-original="#000000" class="active-path" fill="#FFFFFF"/>
	</g>
</g></g> </svg>
