<?xml version="1.0" encoding="iso-8859-1"?>
<!-- Generator: Adobe Illustrator 19.0.0, SVG Export Plug-In . SVG Version: 6.00 Build 0)  -->
<svg xmlns="http://www.w3.org/2000/svg" xmlns:xlink="http://www.w3.org/1999/xlink" version="1.1" id="Capa_1" x="0px" y="0px" viewBox="0 0 512 512" style="enable-background:new 0 0 512 512;" xml:space="preserve" width="512px" height="512px">
<g>
	<g>
		<path d="M476.117,241.415c4.143,0,7.5-3.358,7.5-7.5v-24.731h14.432c7.692,0,13.951-6.258,13.951-13.951V164.27    c0-7.693-6.258-13.951-13.951-13.951h-14.432v-34.08c0-6.304-2.27-12.403-6.391-17.172l-26.872-31.097    c-2.116-2.449-5.188-3.854-8.426-3.854c-3.237,0-6.309,1.405-8.426,3.854l-26.1,30.204c-4.619,5.346-7.162,12.181-7.162,19.244    v32.9h-32.304v-34.08c0-6.304-2.27-12.403-6.391-17.171l-26.871-31.096c-2.117-2.45-5.189-3.855-8.429-3.855    c-3.237,0-6.309,1.406-8.424,3.855l-26.101,30.204c-4.618,5.345-7.162,12.18-7.162,19.244v32.9h-32.303v-34.08    c0-6.303-2.27-12.402-6.392-17.171l-26.871-31.096c-2.117-2.45-5.189-3.855-8.429-3.855c-3.237,0-6.309,1.406-8.423,3.855    l-26.1,30.203c-4.619,5.345-7.163,12.18-7.163,19.245v32.9h-32.3v-34.08c0-6.303-2.27-12.402-6.392-17.171l-26.87-31.098    c-2.117-2.45-5.188-3.855-8.427-3.855c-3.237,0-6.308,1.405-8.426,3.855l-26.1,30.203c-4.619,5.345-7.163,12.18-7.163,19.245v32.9    H37.05c-7.692,0-13.951,6.258-13.951,13.951v30.963c0,7.693,6.258,13.951,13.951,13.951h16.151v82.417H37.05    c-7.692,0-13.951,6.258-13.951,13.951v30.962c0,7.692,6.258,13.951,13.951,13.951h16.151v36.758    c-21.175,5.942-37.575,23.565-41.569,45.66H7.5c-4.143,0-7.5,3.358-7.5,7.5c0,4.142,3.357,7.5,7.5,7.5h127.729    c4.143,0,7.5-3.358,7.5-7.5c0-4.142-3.357-7.5-7.5-7.5c-11.909,0-97.465,0-108.28,0c5.421-21.929,27.082-36.216,49.722-32.131    c3.091,0.556,6.269,1.995,9.684-0.717c1.564-1.227,1.868-2.381,3.905-5.833c17.379-29.305,51.718-43.123,84.205-34.56    c0.001,0,0.001,0,0.002,0c19.703,5.206,36.007,18.139,45.78,34.855c0.76,1.299,2.047,3.662,2.246,3.948    c1.809,2.604,5.022,3.758,8.029,2.981c22.944-5.929,47.028,7.859,52.861,31.457H170.231c-4.143,0-7.5,3.358-7.5,7.5    c0,4.142,3.357,7.5,7.5,7.5h314.916c4.143,0,7.5-3.358,7.5-7.5c0-4.142-3.357-7.5-7.5-7.5h-1.53v-82.418h14.432    c7.692,0,13.951-6.258,13.951-13.951v-30.962c0-7.692-6.258-13.951-13.951-13.951h-14.432v-22.684c0-4.142-3.357-7.5-7.5-7.5    s-7.5,3.358-7.5,7.5v163.966h-53.374V117.42c0-3.464,1.247-6.815,3.512-9.437l23.175-26.82l23.946,27.713    c1.768,2.045,2.74,4.66,2.74,7.363v117.675C468.616,238.057,471.974,241.415,476.117,241.415z M483.617,165.32h13.382v28.863    h-13.382V165.32z M53.202,335.465L53.202,335.465H38.1v-28.863h15.102V335.465z M53.202,194.183L53.202,194.183H38.1V165.32    h15.102V194.183z M121.577,348.58c-18.845,7.524-33.94,20.923-43.744,37.145c-3.283-0.503-6.552-0.714-9.632-0.672V117.42    c0-3.464,1.247-6.815,3.513-9.437L94.89,81.165l23.946,27.711c1.768,2.045,2.741,4.66,2.741,7.362    C121.577,125.86,121.577,324.287,121.577,348.58z M168.881,335.465h-32.303v-28.863h32.303V335.465z M168.881,291.601h-32.303    v-82.417h32.303V291.601z M168.881,194.183h-32.303V165.32h32.303V194.183z M237.257,385.194    c-2.245,0.156-3.762,0.396-4.762,0.532c-10.699-17.695-27.615-31.926-48.613-38.937V117.42c0-3.464,1.247-6.815,3.513-9.437    l23.174-26.819l23.946,27.712c1.768,2.045,2.741,4.66,2.741,7.363V385.194z M284.561,404.219    c-8.365-9.226-19.625-15.744-32.303-18.145v-35.609h32.303V404.219z M284.561,335.465h-32.303v-28.863h32.303V335.465z     M284.561,291.601h-32.303v-82.417h32.303V291.601z M284.561,194.183h-32.303V165.32h32.303V194.183z M352.936,432.883h-53.374    V117.42c0-3.464,1.247-6.815,3.512-9.437l23.175-26.819l23.946,27.712c1.768,2.045,2.74,4.66,2.74,7.363V432.883z     M400.241,432.883h-32.304v-82.418h32.304V432.883z M400.241,335.465h-32.303v-28.863h32.303V335.465z M400.241,291.601h-32.304    v-82.417h32.304V291.601z M400.241,194.183h-32.303V165.32h32.303V194.183z M483.617,306.602h13.382v28.863h-13.382V306.602z" fill="#FFFFFF"/>
	</g>
</g>
<g>
	<g>
		<path d="M94.89,163.778c-4.143,0-7.5,3.358-7.5,7.5v8.473c0,4.142,3.357,7.5,7.5,7.5s7.5-3.358,7.5-7.5v-8.473    C102.39,167.137,99.032,163.778,94.89,163.778z" fill="#FFFFFF"/>
	</g>
</g>
<g>
	<g>
		<path d="M94.89,309.296c-4.143,0-7.5,3.358-7.5,7.5v8.473c0,4.142,3.357,7.5,7.5,7.5s7.5-3.358,7.5-7.5v-8.473    C102.39,312.654,99.032,309.296,94.89,309.296z" fill="#FFFFFF"/>
	</g>
</g>
<g>
	<g>
		<path d="M210.57,163.778c-4.143,0-7.5,3.358-7.5,7.5v8.473c0,4.142,3.357,7.5,7.5,7.5s7.5-3.358,7.5-7.5v-8.473    C218.07,167.137,214.712,163.778,210.57,163.778z" fill="#FFFFFF"/>
	</g>
</g>
<g>
	<g>
		<path d="M210.57,309.296c-4.143,0-7.5,3.358-7.5,7.5v8.473c0,4.142,3.357,7.5,7.5,7.5s7.5-3.358,7.5-7.5v-8.473    C218.07,312.654,214.712,309.296,210.57,309.296z" fill="#FFFFFF"/>
	</g>
</g>
<g>
	<g>
		<path d="M326.249,163.778c-4.143,0-7.5,3.358-7.5,7.5v8.473c0,4.142,3.357,7.5,7.5,7.5s7.5-3.358,7.5-7.5v-8.473    C333.749,167.137,330.392,163.778,326.249,163.778z" fill="#FFFFFF"/>
	</g>
</g>
<g>
	<g>
		<path d="M326.249,309.296c-4.143,0-7.5,3.358-7.5,7.5v8.473c0,4.142,3.357,7.5,7.5,7.5s7.5-3.358,7.5-7.5v-8.473    C333.749,312.654,330.392,309.296,326.249,309.296z" fill="#FFFFFF"/>
	</g>
</g>
<g>
	<g>
		<path d="M441.929,163.778c-4.143,0-7.5,3.358-7.5,7.5v8.473c0,4.142,3.357,7.5,7.5,7.5s7.5-3.358,7.5-7.5v-8.473    C449.429,167.137,446.072,163.778,441.929,163.778z" fill="#FFFFFF"/>
	</g>
</g>
<g>
	<g>
		<path d="M441.929,309.296c-4.143,0-7.5,3.358-7.5,7.5v8.473c0,4.142,3.357,7.5,7.5,7.5s7.5-3.358,7.5-7.5v-8.473    C449.429,312.654,446.072,309.296,441.929,309.296z" fill="#FFFFFF"/>
	</g>
</g>
<g>
</g>
<g>
</g>
<g>
</g>
<g>
</g>
<g>
</g>
<g>
</g>
<g>
</g>
<g>
</g>
<g>
</g>
<g>
</g>
<g>
</g>
<g>
</g>
<g>
</g>
<g>
</g>
<g>
</g>
</svg>
