<?xml version="1.0" encoding="iso-8859-1"?>
<!-- Generator: Adobe Illustrator 19.0.0, SVG Export Plug-In . SVG Version: 6.00 Build 0)  -->
<svg version="1.1" id="Layer_1" xmlns="http://www.w3.org/2000/svg" xmlns:xlink="http://www.w3.org/1999/xlink" x="0px" y="0px"
	 viewBox="0 0 512 512" style="enable-background:new 0 0 512 512;" xml:space="preserve">
<path style="fill:#9BF57D;" d="M436.196,150.475c2.767-0.266,5.042,2.009,4.777,4.777c-1.713,17.849-10.101,77.726-47.439,115.065
	c-24.454,24.454-60.486,28.07-80.479,8.076c-19.993-19.993-16.377-56.025,8.076-80.479
	C358.471,160.575,418.347,152.186,436.196,150.475z"/>
<path style="fill:#8CE16E;" d="M436.196,150.475c-17.849,1.713-77.726,10.101-115.065,47.439
	c-24.454,24.455-28.07,60.486-8.076,80.479l126.667-126.667C438.841,150.845,437.581,150.341,436.196,150.475z"/>
<path style="fill:#9BF57D;" d="M71.027,199.39c-0.266-2.767,2.009-5.042,4.777-4.777c17.849,1.713,77.726,10.101,115.065,47.439
	c24.454,24.454,28.07,60.486,8.076,80.479c-19.993,19.993-56.025,16.377-80.479-8.076C81.127,277.115,72.738,217.239,71.027,199.39z
	"/>
<path style="fill:#8CE16E;" d="M71.027,199.39c1.713,17.849,10.101,77.726,47.439,115.065c24.455,24.454,60.486,28.069,80.479,8.076
	L72.277,195.863C71.396,196.745,70.893,198.005,71.027,199.39z"/>
<path style="fill:#9BF57D;" d="M105.95,48.347c-0.233-2.428,1.763-4.424,4.191-4.191c15.661,1.502,68.196,8.862,100.957,41.623
	c21.455,21.455,24.628,53.069,7.086,70.611s-49.155,14.369-70.611-7.086C114.812,116.544,107.452,64.009,105.95,48.347z"/>
<path style="fill:#8CE16E;" d="M105.95,48.347c1.502,15.66,8.862,68.196,41.623,100.957c21.455,21.455,53.069,24.628,70.612,7.086
	L107.048,45.255C106.274,46.027,105.833,47.134,105.95,48.347z"/>
<path style="fill:#9BF57D;" d="M393.032,0.019c2.428-0.233,4.424,1.763,4.191,4.191c-1.502,15.661-8.862,68.196-41.623,100.957
	c-21.455,21.455-53.069,24.628-70.611,7.086c-17.542-17.542-14.369-49.155,7.086-70.611C324.835,8.88,377.37,1.52,393.032,0.019z"/>
<path style="fill:#8CE16E;" d="M393.032,0.019c-15.66,1.502-68.196,8.862-100.957,41.623c-21.455,21.455-24.628,53.069-7.086,70.612
	L396.125,1.117C395.352,0.343,394.245-0.098,393.032,0.019z"/>
<path style="fill:#7DC86E;" d="M394.655,196.793c-3.448-3.448-9.035-3.448-12.483,0L264.828,314.138V163.181
	c0-11.794,4.595-22.879,12.931-31.211l72.759-72.762c3.448-3.448,3.448-9.035,0-12.483c-3.448-3.448-9.035-3.448-12.483,0
	l-72.759,72.759c-11.672,11.667-18.103,27.185-18.103,43.698v9.766c-0.157-0.16-0.29-0.335-0.448-0.494l-81.587-81.59
	c-3.448-3.448-9.035-3.448-12.483,0c-3.448,3.448-3.448,9.035,0,12.483l81.587,81.594c8.337,8.328,12.931,19.414,12.931,31.207
	v142.13L129.827,240.931c-3.448-3.448-9.035-3.448-12.483,0c-3.448,3.448-3.448,9.035,0,12.483l129.828,129.827v58.137h17.655
	V339.103l129.827-129.827C398.103,205.827,398.103,200.242,394.655,196.793z"/>
<path style="fill:#9A7863;" d="M443.376,503.172C407.851,461.181,337.291,432.552,256,432.552s-151.85,28.629-187.377,70.621"/>
<path style="fill:#8C695C;" d="M307.967,436.648c-16.64-2.626-34.018-4.096-51.967-4.096c-81.29,0-151.85,28.629-187.377,70.621
	h103.934C200.24,470.452,249.24,445.919,307.967,436.648z"/>
<path style="fill:#785353;" d="M476.69,512H35.31c-4.879,0-8.828-3.953-8.828-8.828s3.948-8.828,8.828-8.828H476.69
	c4.879,0,8.828,3.953,8.828,8.828S481.569,512,476.69,512z"/>
<g>
</g>
<g>
</g>
<g>
</g>
<g>
</g>
<g>
</g>
<g>
</g>
<g>
</g>
<g>
</g>
<g>
</g>
<g>
</g>
<g>
</g>
<g>
</g>
<g>
</g>
<g>
</g>
<g>
</g>
</svg>
