<?xml version="1.0" encoding="iso-8859-1"?>
<!-- Generator: Adobe Illustrator 19.0.0, SVG Export Plug-In . SVG Version: 6.00 Build 0)  -->
<svg version="1.1" id="Layer_1" xmlns="http://www.w3.org/2000/svg" xmlns:xlink="http://www.w3.org/1999/xlink" x="0px" y="0px"
	 viewBox="0 0 512 512" style="enable-background:new 0 0 512 512;" xml:space="preserve">
<path style="fill:#B9785F;" d="M167.724,326.621l8.364,150.559c0.26,4.678,4.129,8.338,8.814,8.338h142.195
	c4.685,0,8.554-3.66,8.814-8.338l8.364-150.559H167.724z"/>
<path style="fill:#AA6B57;" d="M220.226,477.18l-8.364-150.559h-44.138l8.364,150.559c0.26,4.678,4.129,8.338,8.814,8.338h44.138
	C224.355,485.517,220.487,481.857,220.226,477.18z"/>
<path style="fill:#82D78C;" d="M360.303,169.352c5.045,22.044-1.654,47.011-19.831,65.188s-43.145,24.876-65.188,19.831
	c-5.045-22.044,1.654-47.011,19.831-65.188C313.291,171.007,338.259,164.308,360.303,169.352z"/>
<path style="fill:#A0EB87;" d="M360.303,169.353l-85.02,85.02l0,0c-5.045-22.044,1.654-47.011,19.831-65.188
	C313.292,171.007,338.259,164.308,360.303,169.353L360.303,169.353z"/>
<path style="fill:#82D78C;" d="M151.697,169.352c-5.045,22.044,1.654,47.011,19.831,65.188s43.145,24.876,65.188,19.831
	c5.045-22.044-1.654-47.011-19.831-65.188S173.741,164.308,151.697,169.352z"/>
<path style="fill:#A0EB87;" d="M151.697,169.353l85.02,85.02l0,0c5.045-22.044-1.654-47.011-19.831-65.188
	S173.741,164.308,151.697,169.353L151.697,169.353z"/>
<path style="fill:#76B580;" d="M324.061,205.646c-3.448-3.448-9.035-3.448-12.483,0l-46.75,46.746v-84.669
	c0-4.875-3.953-8.828-8.828-8.828s-8.828,3.953-8.828,8.828v84.621l-46.75-46.75c-3.448-3.448-9.035-3.448-12.483,0
	s-3.448,9.035,0,12.483l59.233,59.233v40.481h17.655v-40.436l59.233-59.229C327.509,214.681,327.509,209.095,324.061,205.646z"/>
<g>
	<path style="fill:#AA6EFF;" d="M340.094,145.655c7.302-12.647,2.954-28.874-9.694-36.177c-6.141-3.545-33.348-15.247-53.306-20.455
		c-3.833-0.999-7.862,0.678-9.857,4.099l-9.082,15.585c-0.007,0.011-0.011,0.019-0.018,0.03c-1.985,3.438-1.43,7.779,1.359,10.61
		c14.479,14.696,38.262,32.444,44.422,35.999C316.565,162.65,332.792,158.302,340.094,145.655z"/>
	<path style="fill:#AA6EFF;" d="M171.906,48.552c-7.302,12.647-2.954,28.874,9.694,36.177c6.141,3.545,33.348,15.247,53.306,20.455
		c3.833,0.999,7.862-0.678,9.857-4.099l9.082-15.585c0.007-0.011,0.011-0.019,0.018-0.03c1.985-3.438,1.43-7.779-1.359-10.61
		c-14.479-14.696-38.262-32.444-44.422-35.999C195.435,31.556,179.208,35.905,171.906,48.552z"/>
</g>
<g>
	<path style="fill:#C86EFF;" d="M171.906,145.655c-7.302-12.647-2.954-28.874,9.694-36.177c6.141-3.545,33.348-15.247,53.306-20.455
		c3.833-0.999,7.862,0.678,9.857,4.099l9.082,15.585c0.007,0.011,0.011,0.019,0.018,0.03c1.985,3.438,1.43,7.779-1.359,10.61
		c-14.479,14.696-38.262,32.444-44.422,35.999C195.435,162.65,179.208,158.302,171.906,145.655z"/>
	<path style="fill:#C86EFF;" d="M340.094,48.552c7.302,12.647,2.954,28.874-9.694,36.177c-6.141,3.545-33.348,15.247-53.306,20.455
		c-3.833,0.999-7.862-0.678-9.857-4.099l-9.082-15.585c-0.007-0.011-0.011-0.019-0.018-0.03c-1.985-3.438-1.43-7.779,1.359-10.61
		c14.479-14.696,38.262-32.444,44.422-35.999C316.565,31.556,332.792,35.905,340.094,48.552z"/>
</g>
<g>
	<path style="fill:#8C64FF;" d="M256,194.207c14.603,0,26.483-11.88,26.483-26.483c0-7.091-3.47-36.504-8.94-56.392
		c-1.052-3.819-4.517-6.47-8.479-6.487l-18.039-0.073c-0.013,0-0.022,0-0.034,0c-3.97,0-7.453,2.65-8.509,6.483
		c-5.486,19.887-8.964,49.357-8.964,56.469C229.517,182.327,241.397,194.207,256,194.207z"/>
	<path style="fill:#8C64FF;" d="M256,0c-14.603,0-26.483,11.88-26.483,26.483c0,7.091,3.47,36.504,8.94,56.392
		c1.052,3.819,4.518,6.47,8.479,6.487l18.039,0.073c0.013,0,0.022,0,0.034,0c3.97,0,7.453-2.65,8.509-6.483
		c5.486-19.887,8.964-49.357,8.964-56.469C282.483,11.88,270.603,0,256,0z"/>
</g>
<circle style="fill:#FFDCA0;" cx="256" cy="97.103" r="22.069"/>
<g>
	<path style="fill:#9B5F50;" d="M344.276,335.448H167.724c-4.875,0-8.828-3.953-8.828-8.828v-8.828c0-4.875,3.953-8.828,8.828-8.828
		h176.552c4.875,0,8.828,3.953,8.828,8.828v8.828C353.103,331.496,349.151,335.448,344.276,335.448z"/>
	<path style="fill:#9B5F50;" d="M317.793,512H194.207c-4.875,0-8.828-3.953-8.828-8.828v-17.655h141.241v17.655
		C326.621,508.047,322.668,512,317.793,512z"/>
</g>
<path style="fill:#CB916F;" d="M310.406,467.862c-0.163,0-0.332-0.004-0.5-0.013c-4.866-0.271-8.595-4.436-8.323-9.306l2.94-52.957
	c0.271-4.866,4.47-8.534,9.302-8.328c4.871,0.271,8.599,4.436,8.328,9.306l-2.94,52.961
	C318.948,464.224,315.057,467.862,310.406,467.862z"/>
<path style="fill:#D5A079;" d="M315.556,379.586c-0.163,0-0.328-0.004-0.495-0.013c-4.866-0.267-8.595-4.431-8.328-9.302
	l0.487-8.828c0.267-4.866,4.306-8.612,9.302-8.328c4.866,0.267,8.595,4.431,8.328,9.302l-0.487,8.828
	C324.104,375.948,320.206,379.586,315.556,379.586z"/>
<g>
</g>
<g>
</g>
<g>
</g>
<g>
</g>
<g>
</g>
<g>
</g>
<g>
</g>
<g>
</g>
<g>
</g>
<g>
</g>
<g>
</g>
<g>
</g>
<g>
</g>
<g>
</g>
<g>
</g>
</svg>
