<?xml version="1.0"?>
<svg xmlns="http://www.w3.org/2000/svg" xmlns:xlink="http://www.w3.org/1999/xlink" version="1.1" id="Capa_1" x="0px" y="0px" viewBox="0 0 512 512" style="enable-background:new 0 0 512 512;" xml:space="preserve" width="512px" height="512px" class=""><g transform="matrix(-1.83697e-16 -1 1 -1.83697e-16 0 512)"><g>
	<g>
		<path d="M502.033,360.452l-70.162-70.123c-12.59-12.583-33.075-12.584-45.665,0l-25.244,25.23l-25.8-25.793    c-2.673-2.672-6.856-2.897-9.794-0.692l-71.862-71.826c-2.93-2.929-7.679-2.927-10.606,0.003    c-2.928,2.93-2.927,7.678,0.003,10.607l71.799,71.764l-15.694,15.694L132.38,148.778c-2.097-2.095-3.252-4.881-3.252-7.845    c0-2.966,1.156-5.756,3.256-7.856c2.091-2.091,4.878-3.243,7.847-3.243s5.755,1.152,7.848,3.245l70.756,70.721    c2.929,2.928,7.678,2.927,10.606-0.003c2.928-2.93,2.927-7.678-0.003-10.607l-31.079-31.064l35.034-35.009    c2.359-2.359,3.656-5.494,3.652-8.828c-0.004-3.329-1.306-6.455-3.653-8.79l-75.911-75.884    C133.696,9.852,100.83-2.273,67.306,0.353l-52.11,4.071C9.015,4.923,4.09,9.968,3.741,16.169l-3.07,55.823    c-1.785,32.544,10.414,64.425,33.467,87.469l24.63,24.614c1.464,1.463,3.382,2.195,5.301,2.195c1.92,0,3.84-0.733,5.305-2.198    c2.928-2.93,2.926-7.679-0.003-10.607L44.742,148.85c-20.041-20.031-30.645-47.746-29.093-76.036l2.948-53.609l49.878-3.897    c29.15-2.285,57.725,8.259,78.402,28.918l74.109,74.083l-33.238,33.214l-29.067-29.052c-4.924-4.925-11.478-7.637-18.453-7.637    c-6.975,0-13.529,2.712-18.453,7.637c-4.933,4.933-7.649,11.49-7.649,18.463c0,6.975,2.718,13.53,7.651,18.457l29.052,29.036    l-33.241,33.226l-24.043-24.029c-2.931-2.928-7.678-2.927-10.607,0.003c-2.928,2.93-2.926,7.679,0.003,10.607l25.834,25.817    c2.43,2.43,5.622,3.645,8.813,3.645c3.191,0,6.383-1.215,8.812-3.644l35.038-35.022l127.031,126.96    c-2.157,2.935-1.918,7.079,0.736,9.734l25.779,25.788l-25.251,25.237c-6.104,6.101-9.467,14.215-9.467,22.846    c0,8.631,3.362,16.744,9.467,22.845l70.162,70.123c6.295,6.292,14.563,9.437,22.833,9.437c8.269,0,16.538-3.146,22.833-9.437    l96.473-96.42c6.104-6.101,9.467-14.214,9.467-22.845C511.5,374.666,508.138,366.553,502.033,360.452z M305.116,330.422    l24.745-24.746l20.492,20.486l-24.759,24.745L305.116,330.422z M491.43,395.533l-96.473,96.42c-6.744,6.739-17.715,6.739-24.458,0    l-70.162-70.123c-3.27-3.268-5.07-7.614-5.07-12.236c0-4.623,1.801-8.968,5.07-12.236l96.473-96.42    c3.372-3.37,7.8-5.054,12.229-5.054c4.428,0,8.858,1.685,12.229,5.054l70.162,70.123c3.27,3.268,5.07,7.613,5.07,12.236    C496.5,387.919,494.699,392.265,491.43,395.533z" data-original="#000000" class="active-path" data-old_color="#FFFFFF" fill="#FFFFFF"/>
	</g>
</g><g>
	<g>
		<path d="M465.207,376.24l-49.114-49.09c-3.891-3.886-10.219-3.885-14.109,0.001l-7.797,7.793    c-2.93,2.928-2.931,7.677-0.003,10.607c2.929,2.93,7.678,2.93,10.606,0.003l4.249-4.246l42.012,41.989l-68.323,68.285    l-42.012-41.988l40.693-40.67c2.93-2.928,2.931-7.677,0.003-10.607c-2.927-2.93-7.676-2.931-10.606-0.003l-44.246,44.221    c-1.886,1.885-2.925,4.392-2.925,7.059s1.039,5.174,2.925,7.059l49.114,49.088c1.945,1.943,4.5,2.915,7.054,2.915    c2.555,0,5.11-0.972,7.055-2.916l75.424-75.382c1.886-1.885,2.925-4.392,2.925-7.059S467.093,378.125,465.207,376.24z" data-original="#000000" class="active-path" data-old_color="#FFFFFF" fill="#FFFFFF"/>
	</g>
</g></g> </svg>
