<?xml version="1.0" encoding="iso-8859-1"?>
<!-- Generator: Adobe Illustrator 19.0.0, SVG Export Plug-In . SVG Version: 6.00 Build 0)  -->
<svg xmlns="http://www.w3.org/2000/svg" xmlns:xlink="http://www.w3.org/1999/xlink" version="1.1" id="Capa_1" x="0px" y="0px" viewBox="0 0 511.999 511.999" style="enable-background:new 0 0 511.999 511.999;" xml:space="preserve" width="512px" height="512px">
<g>
	<g>
		<path d="M504.499,492.876h-17.299c-6.079-43.797-44.223-77.157-89.846-77.157c-5.738,0-11.455,0.531-17.059,1.582    c-2.616-4.479-5.468-8.773-8.516-12.89v-30.283h23.656c20.411,0,37.017-16.393,37.017-36.542v-12.092c0-4.142-3.357-7.5-7.5-7.5    h-31.157c-8.24,0-15.858,2.674-22.016,7.186v-11.778v-54.654c14.729-10.062,23.495-26.449,23.495-44.153    c0-3.69-0.399-7.319-1.134-10.852c2.034,3.053,4.383,5.936,7.068,8.578c10.334,10.167,24.148,15.693,38.43,15.693    c3.697,0,7.427-0.371,11.135-1.127c4.536-0.925,8.081-4.435,9.032-8.943c3.759-17.841-1.791-36.162-14.848-49.009    c-2.516-2.476-5.244-4.669-8.13-6.581c3.459,0.674,7.008,1.034,10.614,1.034c9.071,0,18.061-2.252,25.999-6.514    c3.65-1.959,5.021-6.506,3.062-10.156c-1.959-3.65-6.509-5.02-10.156-3.061c-5.765,3.094-12.302,4.729-18.904,4.729    c-12.556,0-24.225-5.795-31.675-15.617c7.449-9.822,19.118-15.617,31.675-15.617c6.603,0,13.14,1.636,18.903,4.73    c3.65,1.958,8.198,0.588,10.156-3.06c1.96-3.649,0.59-8.197-3.06-10.157c-7.938-4.262-16.929-6.514-26-6.514    c-3.603,0-7.149,0.359-10.606,1.033c2.884-1.912,5.608-4.105,8.122-6.579c13.057-12.847,18.606-31.168,14.848-49.01    c-0.95-4.506-4.495-8.016-9.032-8.942c-18.033-3.679-36.557,1.768-49.565,14.566c-2.685,2.642-5.033,5.525-7.068,8.578    c0.735-3.532,1.134-7.16,1.134-10.852c0-18.177-9.223-34.986-24.669-44.964c-3.84-2.482-8.808-2.484-12.653,0    c-15.447,9.978-24.669,26.787-24.669,44.964c0,3.691,0.399,7.319,1.134,10.852c-2.035-3.053-4.384-5.937-7.069-8.58    c-13.007-12.799-31.537-18.243-49.565-14.566h-0.001c-4.538,0.926-8.082,4.438-9.03,8.942c-3.76,17.841,1.79,36.162,14.848,49.009    c2.514,2.474,5.238,4.668,8.122,6.58c-3.456-0.673-7.003-1.033-10.606-1.033c-18.388,0-35.41,9.06-45.536,24.234    c-0.001,0.001-0.002,0.002-0.002,0.003c-2.584,3.876-2.584,8.885,0.002,12.764c10.125,15.175,27.148,24.234,45.536,24.234    c3.605,0,7.155-0.36,10.614-1.034c-2.886,1.913-5.614,4.105-8.13,6.581c-13.057,12.847-18.607,31.166-14.849,49.005    c0.947,4.508,4.492,8.02,9.032,8.947c3.708,0.756,7.436,1.127,11.135,1.127c14.281,0,28.099-5.527,38.43-15.693    c2.685-2.642,5.034-5.525,7.069-8.579c-0.735,3.532-1.134,7.161-1.134,10.852c0,17.704,8.767,34.092,23.495,44.154v25.297    c-6.157-4.512-13.776-7.186-22.016-7.186h-31.157c-4.143,0-7.5,3.358-7.5,7.5v12.092c0,20.149,16.605,36.542,37.017,36.542h23.656    v21.541v12.092v20.594c-26.413-25.744-62.344-40.721-100.778-40.721c-45.904,0-88.233,21.366-115.038,56.925v-28.859v-12.092    v-49.853c14.729-10.061,23.495-26.449,23.495-44.154c0-3.691-0.399-7.319-1.134-10.852c2.035,3.053,4.384,5.937,7.069,8.58    c10.333,10.167,24.147,15.693,38.43,15.693c3.697,0,7.428-0.371,11.136-1.127c4.537-0.926,8.081-4.436,9.03-8.942    c3.76-17.841-1.79-36.162-14.848-49.009c-2.516-2.476-5.243-4.669-8.129-6.581c3.459,0.674,7.008,1.034,10.614,1.034    c18.388,0,35.411-9.06,45.538-24.236c2.584-3.876,2.584-8.886,0-12.762c0-0.001-0.001-0.002-0.002-0.003    c-10.126-15.174-27.148-24.233-45.536-24.233c-3.603,0-7.149,0.359-10.606,1.033c2.884-1.912,5.608-4.105,8.122-6.579    c13.058-12.848,18.607-31.169,14.849-49.006c-0.948-4.508-4.492-8.02-9.031-8.946h-0.001    c-18.025-3.676-36.557,1.768-49.565,14.566c-2.685,2.642-5.034,5.525-7.069,8.58c0.735-3.532,1.134-7.161,1.134-10.852    c0-18.177-9.223-34.986-24.671-44.965c-3.844-2.481-8.81-2.482-12.652,0.001h0.001c-15.448,9.979-24.67,26.788-24.67,44.964    c0,3.69,0.399,7.319,1.134,10.852c-2.034-3.053-4.383-5.936-7.068-8.578C83.523,94.297,64.994,88.852,46.967,92.531    c-4.536,0.925-8.081,4.435-9.032,8.943c-3.759,17.841,1.791,36.162,14.848,49.009c2.514,2.474,5.238,4.667,8.121,6.579    c-3.456-0.673-7.002-1.032-10.605-1.032c-18.387,0-35.409,9.06-45.535,24.233c-2.588,3.878-2.588,8.891,0,12.768    c10.125,15.175,27.148,24.234,45.535,24.234c3.605,0,7.154-0.36,10.613-1.034c-2.886,1.913-5.613,4.105-8.129,6.581    c-13.057,12.847-18.606,31.168-14.848,49.009c0.95,4.506,4.495,8.016,9.032,8.942c3.708,0.756,7.436,1.127,11.134,1.127    c14.281,0,28.099-5.527,38.431-15.693c2.685-2.642,5.033-5.525,7.068-8.579c-0.735,3.532-1.134,7.16-1.134,10.852    c0,17.704,8.767,34.092,23.495,44.153v20.498c-6.157-4.512-13.776-7.186-22.016-7.186H72.787c-4.143,0-7.5,3.358-7.5,7.5v12.092    c0,20.149,16.605,36.542,37.017,36.542h23.656v34.366c-3.746-0.46-7.523-0.714-11.315-0.714c-45.622,0-83.766,33.36-89.846,77.157    H7.5c-4.143,0-7.5,3.358-7.5,7.5s3.357,7.498,7.5,7.498c2.169,0,228.812,0,230.998,0c4.143,0,7.5-3.358,7.5-7.5    s-3.357-7.5-7.5-7.5c-9.303,0-191.369,0-198.55,0c5.955-35.435,37.328-62.156,74.697-62.156c6.447,0,12.855,0.798,19.044,2.373    c3.347,0.853,6.849-0.696,8.473-3.749C164.4,387.498,208.02,361.502,256,361.502c40.547,0,77.98,18.568,102.026,49.578    c0.16,0.241,0.334,0.472,0.52,0.692c4.196,5.487,7.985,11.35,11.292,17.572c1.622,3.053,5.123,4.602,8.472,3.749    c6.188-1.574,12.597-2.373,19.044-2.373c37.369,0,68.742,26.722,74.696,62.156c-10.229,0-188.38,0-198.55,0    c-4.143,0-7.5,3.358-7.5,7.5c0,4.142,3.357,7.5,7.5,7.5c4.563,0,226.441,0,230.998,0c4.143,0,7.5-3.358,7.5-7.5    C511.999,496.234,508.642,492.876,504.499,492.876z M371.779,354.537c0.001-11.878,9.878-21.541,22.016-21.541h23.656v4.591    c0,11.878-9.877,21.541-22.016,21.541h-23.656V354.537z M125.961,367.066h-23.656c-12.14,0-22.016-9.664-22.016-21.541v-4.591    h23.656c12.14,0,22.016,9.664,22.016,21.541V367.066z M151.267,233.452c1.117-0.415,2.212-0.873,3.289-1.361    c0.171,2.334,0.495,4.646,0.97,6.925C154.234,237.076,152.812,235.219,151.267,233.452z M216.623,171.029    c12.557,0,24.225,5.795,31.675,15.617c-7.449,9.822-19.118,15.617-31.675,15.617c-12.556,0-24.224-5.795-31.674-15.617    C192.399,176.825,204.067,171.029,216.623,171.029z M180.952,204.119c1.711,1.465,3.506,2.818,5.377,4.055    c-2.211-0.434-4.451-0.732-6.713-0.893C180.095,206.245,180.545,205.192,180.952,204.119z M179.62,166.02    c2.24-0.159,4.463-0.438,6.655-0.866c-1.852,1.227-3.629,2.568-5.323,4.019C180.546,168.103,180.097,167.054,179.62,166.02z     M180.912,117.789c8.907-8.763,21.403-12.773,33.805-10.954c1.803,12.083-2.258,24.255-11.098,32.953    c-8.907,8.763-21.402,12.773-33.806,10.953C168.012,138.658,172.073,126.487,180.912,117.789z M169.813,222.551    c12.404-1.819,24.898,2.19,33.806,10.954c8.84,8.698,12.901,20.87,11.098,32.953c-12.402,1.82-24.897-2.19-33.805-10.954    C172.072,246.806,168.012,234.633,169.813,222.551z M155.526,134.276c-0.475,2.28-0.799,4.591-0.97,6.925    c-1.078-0.489-2.172-0.946-3.289-1.36C152.812,138.073,154.234,136.216,155.526,134.276z M133.461,73.703    c10.056,7.305,15.995,18.784,15.995,31.121c0,12.339-5.939,23.816-15.994,31.121c-10.058-7.305-15.996-18.783-15.996-31.121    C117.466,92.487,123.405,81.008,133.461,73.703z M115.655,139.842c-1.117,0.415-2.212,0.872-3.29,1.36    c-0.171-2.335-0.495-4.647-0.97-6.926C112.688,136.215,114.11,138.073,115.655,139.842z M50.299,202.263    c-12.556,0-24.224-5.796-31.674-15.617c7.449-9.822,19.118-15.617,31.674-15.617c12.557,0,24.225,5.795,31.675,15.617    C74.525,196.468,62.856,202.263,50.299,202.263z M85.97,169.172c-1.693-1.45-3.47-2.791-5.321-4.018    c2.19,0.428,4.413,0.707,6.653,0.866C86.825,167.054,86.376,168.102,85.97,169.172z M87.306,207.282    c-2.261,0.16-4.5,0.459-6.711,0.892c1.871-1.236,3.665-2.588,5.375-4.053C86.377,205.194,86.828,206.245,87.306,207.282z     M86.011,255.504c-8.907,8.763-21.401,12.773-33.806,10.954c-1.802-12.084,2.258-24.255,11.098-32.953    c8.908-8.763,21.404-12.772,33.806-10.954C98.91,234.634,94.851,246.806,86.011,255.504z M97.109,150.742    c-12.402,1.819-24.898-2.19-33.806-10.953c-8.84-8.698-12.9-20.871-11.098-32.954c12.404-1.82,24.898,2.19,33.806,10.954    C94.851,126.487,98.91,138.658,97.109,150.742z M97.772,186.748c0-0.068,0-0.136,0-0.204c0.056-19.25,16.043-34.894,35.689-34.894    c19.651,0,35.641,15.653,35.689,34.91c0,0.057,0,0.115,0,0.172c-0.048,19.257-16.038,34.91-35.689,34.91    C113.815,221.642,97.829,205.999,97.772,186.748z M111.396,239.018c0.475-2.279,0.799-4.591,0.97-6.926    c1.078,0.489,2.173,0.946,3.29,1.36C114.11,235.219,112.688,237.077,111.396,239.018z M133.462,299.59    c-10.058-7.305-15.996-18.783-15.996-31.121s5.938-23.815,15.995-31.121c10.056,7.304,15.995,18.783,15.995,31.121    C149.456,280.808,143.517,292.286,133.462,299.59z M382.084,179.579c1.117-0.415,2.213-0.872,3.29-1.36    c0.171,2.335,0.495,4.647,0.97,6.926C385.052,183.205,383.63,181.347,382.084,179.579z M417.146,154.302    c-2.211-0.434-4.451-0.733-6.712-0.893c0.479-1.037,0.929-2.088,1.336-3.161C413.48,151.713,415.275,153.065,417.146,154.302z     M411.77,115.3c-0.406-1.07-0.855-2.118-1.332-3.152c2.239-0.159,4.462-0.438,6.653-0.866    C415.239,112.509,413.463,113.849,411.77,115.3z M411.729,63.917c8.908-8.763,21.403-12.772,33.806-10.954    c1.802,12.084-2.258,24.255-11.098,32.953c-8.907,8.763-21.401,12.773-33.806,10.953C398.83,84.786,402.889,72.614,411.729,63.917    z M400.631,168.678c12.402-1.819,24.898,2.19,33.806,10.954c8.84,8.698,12.9,20.87,11.098,32.953    c-12.404,1.819-24.898-2.19-33.806-10.954C402.889,192.934,398.83,180.761,400.631,168.678z M386.344,80.403    c-0.475,2.279-0.799,4.592-0.97,6.926c-1.078-0.489-2.173-0.946-3.29-1.36C383.63,84.201,385.052,82.343,386.344,80.403z     M364.278,19.83c10.058,7.305,15.996,18.783,15.996,31.121c0,12.337-5.939,23.815-15.996,31.121    c-10.055-7.304-15.994-18.783-15.994-31.121C348.284,38.612,354.223,27.135,364.278,19.83z M346.473,85.969    c-1.116,0.415-2.211,0.872-3.289,1.36c-0.171-2.334-0.495-4.646-0.97-6.925C343.506,82.344,344.928,84.201,346.473,85.969z     M281.117,148.391c-12.558,0-24.227-5.796-31.676-15.617c7.45-9.822,19.119-15.617,31.676-15.617    c12.556,0,24.224,5.794,31.674,15.617C305.341,142.596,293.674,148.391,281.117,148.391z M316.788,115.301    c-1.694-1.451-3.47-2.792-5.322-4.019c2.19,0.428,4.414,0.707,6.654,0.866C317.643,113.182,317.194,114.231,316.788,115.301z     M318.124,153.409c-2.262,0.16-4.503,0.459-6.714,0.893c1.871-1.236,3.667-2.589,5.378-4.055    C317.195,151.32,317.646,152.372,318.124,153.409z M316.828,201.631c-8.907,8.764-21.402,12.773-33.805,10.954    c-1.803-12.083,2.258-24.254,11.098-32.953c8.907-8.763,21.397-12.771,33.806-10.954    C329.728,180.762,325.667,192.934,316.828,201.631z M327.927,96.87c-12.402,1.819-24.898-2.189-33.806-10.954    c-8.839-8.697-12.899-20.868-11.098-32.953c12.402-1.82,24.898,2.19,33.805,10.954C325.668,72.614,329.728,84.787,327.927,96.87z     M328.59,132.86c0-0.057,0-0.115,0-0.172c0.048-19.257,16.038-34.91,35.689-34.91c19.646,0,35.632,15.644,35.689,34.894    c0,0.068,0,0.136,0,0.204c-0.056,19.25-16.043,34.894-35.689,34.894C344.628,167.77,328.637,152.117,328.59,132.86z     M342.214,185.144c0.475-2.28,0.799-4.591,0.97-6.925c1.078,0.489,2.172,0.946,3.289,1.36    C344.928,181.347,343.506,183.204,342.214,185.144z M356.779,317.994h-23.656c-12.14,0-22.016-9.664-22.016-21.541v-4.591h23.656    c12.14,0,22.016,9.664,22.016,21.541V317.994z M364.278,245.718c-10.055-7.304-15.994-18.783-15.994-31.121    c0-12.339,5.939-23.816,15.994-31.121c10.058,7.305,15.996,18.783,15.996,31.121C380.274,226.934,374.335,238.413,364.278,245.718    z" fill="#FFFFFF"/>
	</g>
</g>
<g>
</g>
<g>
</g>
<g>
</g>
<g>
</g>
<g>
</g>
<g>
</g>
<g>
</g>
<g>
</g>
<g>
</g>
<g>
</g>
<g>
</g>
<g>
</g>
<g>
</g>
<g>
</g>
<g>
</g>
</svg>
